<?xml version="1.0" encoding="utf-8"?>
<!-- Generator: Adobe Illustrator 24.3.0, SVG Export Plug-In . SVG Version: 6.00 Build 0)  -->
<svg version="1.1" id="Layer_5" xmlns="http://www.w3.org/2000/svg" xmlns:xlink="http://www.w3.org/1999/xlink" x="0px" y="0px"
	 viewBox="0 0 692.1 159.9" style="enable-background:new 0 0 692.1 159.9;" xml:space="preserve">
<style type="text/css">
	.st0{enable-background:new    ;}
	.st1{fill:#FFFFFF;}
</style>
<g class="st0">
	<path class="st1" d="M6.1,68.8c2.1-3.8,5-6.8,8.7-8.9c3.7-2.1,7.9-3.2,12.7-3.2c6.1,0,11.2,1.5,15.2,4.6c4,3.1,6.7,7.4,8.1,12.9
		H37.3c-0.7-2.1-1.9-3.8-3.6-5c-1.7-1.2-3.8-1.8-6.3-1.8c-3.6,0-6.4,1.3-8.5,3.9c-2.1,2.6-3.1,6.3-3.1,11c0,4.7,1,8.4,3.1,10.9
		c2.1,2.6,4.9,3.9,8.5,3.9c5.1,0,8.4-2.3,9.9-6.8h13.5c-1.4,5.4-4.1,9.6-8.1,12.8c-4.1,3.2-9.1,4.7-15.2,4.7c-4.8,0-9-1.1-12.7-3.2
		c-3.7-2.1-6.6-5.1-8.7-8.9C4,91.8,2.9,87.3,2.9,82.2C2.9,77.1,4,72.6,6.1,68.8z"/>
	<path class="st1" d="M69.1,104.6c-3.8-2.1-6.8-5.1-9-9c-2.2-3.9-3.3-8.3-3.3-13.4c0-5.1,1.1-9.5,3.4-13.4c2.2-3.9,5.3-6.9,9.2-9
		c3.9-2.1,8.2-3.2,13-3.2c4.8,0,9.1,1.1,13,3.2c3.9,2.1,6.9,5.1,9.2,9c2.2,3.9,3.4,8.3,3.4,13.4c0,5.1-1.1,9.5-3.4,13.4
		c-2.3,3.9-5.4,6.9-9.3,9c-3.9,2.1-8.3,3.2-13.1,3.2C77.2,107.8,72.9,106.7,69.1,104.6z M88.3,95.2c2-1.1,3.6-2.8,4.8-5
		c1.2-2.2,1.8-4.9,1.8-8c0-4.7-1.2-8.3-3.7-10.9c-2.5-2.5-5.5-3.8-9.1-3.8c-3.6,0-6.6,1.3-9,3.8c-2.4,2.5-3.6,6.2-3.6,10.9
		c0,4.7,1.2,8.3,3.5,10.9c2.4,2.5,5.3,3.8,8.9,3.8C84.2,96.9,86.3,96.3,88.3,95.2z"/>
	<path class="st1" d="M116.7,68.7c2-3.9,4.7-6.8,8.2-8.9c3.5-2.1,7.3-3.1,11.5-3.1c3.2,0,6.3,0.7,9.2,2.1c2.9,1.4,5.2,3.3,7,5.6
		V40.8h12.7V107h-12.7v-7.3c-1.5,2.4-3.7,4.4-6.5,5.9c-2.8,1.5-6,2.2-9.7,2.2c-4.2,0-8-1.1-11.4-3.2c-3.5-2.1-6.2-5.2-8.2-9.1
		c-2-3.9-3-8.4-3-13.4C113.7,77,114.7,72.6,116.7,68.7z M150.9,74.4c-1.2-2.2-2.8-3.8-4.8-5c-2-1.2-4.2-1.7-6.5-1.7
		c-2.3,0-4.5,0.6-6.4,1.7c-2,1.1-3.6,2.8-4.8,5c-1.2,2.2-1.8,4.8-1.8,7.7c0,3,0.6,5.6,1.8,7.8c1.2,2.2,2.8,3.9,4.8,5.1
		c2,1.2,4.1,1.8,6.4,1.8c2.3,0,4.5-0.6,6.5-1.7c2-1.2,3.6-2.8,4.8-5c1.2-2.2,1.8-4.8,1.8-7.8S152.1,76.6,150.9,74.4z"/>
	<path class="st1" d="M223.2,86H187c0.3,3.6,1.5,6.4,3.8,8.4c2.2,2,4.9,3,8.1,3c4.6,0,8-2,9.9-6h13.5c-1.4,4.8-4.2,8.7-8.2,11.7
		c-4.1,3.1-9,4.6-14.9,4.6c-4.8,0-9-1.1-12.8-3.2c-3.8-2.1-6.7-5.1-8.8-9c-2.1-3.9-3.2-8.3-3.2-13.4c0-5.1,1-9.6,3.1-13.5
		c2.1-3.9,5-6.8,8.8-8.9c3.8-2.1,8.1-3.1,13-3.1c4.7,0,8.9,1,12.6,3c3.7,2,6.6,4.9,8.7,8.6c2.1,3.7,3.1,8,3.1,12.8
		C223.6,82.9,223.4,84.5,223.2,86z M210.6,77.6c-0.1-3.2-1.2-5.8-3.5-7.7c-2.3-1.9-5-2.9-8.3-2.9c-3.1,0-5.7,0.9-7.8,2.8
		c-2.1,1.9-3.4,4.5-3.9,7.8H210.6z"/>
	<path class="st1" d="M251.8,58.9c2.8-1.5,6.1-2.3,9.7-2.3c4.2,0,8.1,1,11.5,3.1c3.4,2.1,6.1,5,8.1,8.9c2,3.8,3,8.3,3,13.4
		c0,5.1-1,9.5-3,13.4c-2,3.9-4.7,6.9-8.1,9.1c-3.4,2.1-7.3,3.2-11.5,3.2c-3.6,0-6.8-0.7-9.6-2.2c-2.8-1.5-5-3.4-6.7-5.6v30.6h-12.5
		V57.5h12.5v7.1C246.8,62.3,249,60.5,251.8,58.9z M269.5,74.3c-1.2-2.2-2.8-3.8-4.8-5c-2-1.1-4.2-1.7-6.5-1.7
		c-2.3,0-4.4,0.6-6.4,1.7c-2,1.2-3.6,2.8-4.8,5c-1.2,2.2-1.8,4.8-1.8,7.8c0,3,0.6,5.6,1.8,7.8c1.2,2.2,2.8,3.9,4.8,5
		c2,1.2,4.1,1.7,6.4,1.7c2.3,0,4.5-0.6,6.5-1.8c2-1.2,3.6-2.9,4.8-5.1c1.2-2.2,1.8-4.8,1.8-7.9C271.4,79.1,270.7,76.5,269.5,74.3z"
		/>
	<path class="st1" d="M302.4,104.6c-3.8-2.1-6.8-5.1-9-9c-2.2-3.9-3.3-8.3-3.3-13.4c0-5.1,1.1-9.5,3.4-13.4c2.2-3.9,5.3-6.9,9.2-9
		c3.9-2.1,8.2-3.2,13-3.2c4.8,0,9.1,1.1,13,3.2c3.9,2.1,6.9,5.1,9.2,9c2.2,3.9,3.4,8.3,3.4,13.4c0,5.1-1.1,9.5-3.4,13.4
		c-2.3,3.9-5.4,6.9-9.3,9c-3.9,2.1-8.3,3.2-13.1,3.2C310.5,107.8,306.2,106.7,302.4,104.6z M321.6,95.2c2-1.1,3.6-2.8,4.8-5
		c1.2-2.2,1.8-4.9,1.8-8c0-4.7-1.2-8.3-3.7-10.9c-2.5-2.5-5.5-3.8-9.1-3.8s-6.6,1.3-9,3.8c-2.4,2.5-3.6,6.2-3.6,10.9
		c0,4.7,1.2,8.3,3.5,10.9c2.4,2.5,5.3,3.8,8.9,3.8C317.5,96.9,319.6,96.3,321.6,95.2z"/>
	<path class="st1" d="M362.8,40.8V107h-12.5V40.8H362.8z"/>
	<path class="st1" d="M374.9,68.7c2-3.9,4.7-6.8,8.1-8.9c3.4-2.1,7.3-3.1,11.5-3.1c3.7,0,6.9,0.7,9.7,2.2c2.8,1.5,5,3.4,6.7,5.6
		v-7.1h12.6V107h-12.6v-7.2c-1.6,2.3-3.8,4.2-6.7,5.8c-2.8,1.5-6.1,2.3-9.8,2.3c-4.2,0-8-1.1-11.4-3.2c-3.4-2.1-6.1-5.2-8.1-9.1
		c-2-3.9-3-8.4-3-13.4C371.9,77,372.9,72.6,374.9,68.7z M409,74.4c-1.2-2.2-2.8-3.8-4.8-5c-2-1.2-4.2-1.7-6.5-1.7s-4.5,0.6-6.4,1.7
		c-2,1.1-3.6,2.8-4.8,5c-1.2,2.2-1.8,4.8-1.8,7.7c0,3,0.6,5.6,1.8,7.8c1.2,2.2,2.8,3.9,4.8,5.1c2,1.2,4.1,1.8,6.4,1.8
		c2.3,0,4.5-0.6,6.5-1.7c2-1.2,3.6-2.8,4.8-5c1.2-2.2,1.8-4.8,1.8-7.8S410.2,76.6,409,74.4z"/>
	<path class="st1" d="M454.5,59c2.6-1.5,5.6-2.2,8.9-2.2v13.1h-3.3c-3.9,0-6.9,0.9-8.9,2.8c-2,1.8-3,5.1-3,9.7V107h-12.5V57.5h12.5
		v7.7C449.8,62.5,451.9,60.5,454.5,59z"/>
	<path class="st1" d="M472.6,49.5c-1.5-1.4-2.2-3.1-2.2-5.2c0-2.1,0.7-3.8,2.2-5.2c1.5-1.4,3.3-2.1,5.5-2.1c2.2,0,4,0.7,5.5,2.1
		c1.5,1.4,2.2,3.1,2.2,5.2c0,2.1-0.7,3.8-2.2,5.2c-1.5,1.4-3.3,2.1-5.5,2.1C475.9,51.6,474.1,50.9,472.6,49.5z M484.3,57.5V107
		h-12.5V57.5H484.3z"/>
	<path class="st1" d="M511.2,67.7v23.9c0,1.7,0.4,2.9,1.2,3.6c0.8,0.7,2.2,1.1,4.1,1.1h5.8V107h-7.9c-10.5,0-15.8-5.1-15.8-15.4
		V67.7h-5.9V57.5h5.9V45.2h12.6v12.2h11.1v10.3H511.2z"/>
	<path class="st1" d="M578.6,57.5L548,130.4h-13.3l10.7-24.7l-19.8-48.2h14L552.4,92l13-34.6H578.6z"/>
	<path class="st1" d="M607.4,49.5c-1.5-1.4-2.2-3.1-2.2-5.2c0-2.1,0.7-3.8,2.2-5.2c1.5-1.4,3.3-2.1,5.5-2.1c2.2,0,4,0.7,5.5,2.1
		c1.5,1.4,2.2,3.1,2.2,5.2c0,2.1-0.7,3.8-2.2,5.2c-1.5,1.4-3.3,2.1-5.5,2.1C610.7,51.6,608.9,50.9,607.4,49.5z M619.1,57.5V107
		h-12.5V57.5H619.1z"/>
	<path class="st1" d="M640.5,104.6c-3.8-2.1-6.8-5.1-9-9c-2.2-3.9-3.3-8.3-3.3-13.4c0-5.1,1.1-9.5,3.4-13.4c2.2-3.9,5.3-6.9,9.2-9
		c3.9-2.1,8.2-3.2,13-3.2c4.8,0,9.1,1.1,13,3.2c3.9,2.1,6.9,5.1,9.2,9c2.2,3.9,3.4,8.3,3.4,13.4c0,5.1-1.1,9.5-3.4,13.4
		c-2.3,3.9-5.4,6.9-9.3,9c-3.9,2.1-8.3,3.2-13.1,3.2C648.6,107.8,644.4,106.7,640.5,104.6z M659.8,95.2c2-1.1,3.6-2.8,4.8-5
		c1.2-2.2,1.8-4.9,1.8-8c0-4.7-1.2-8.3-3.7-10.9c-2.5-2.5-5.5-3.8-9.1-3.8s-6.6,1.3-9,3.8c-2.4,2.5-3.6,6.2-3.6,10.9
		c0,4.7,1.2,8.3,3.5,10.9c2.4,2.5,5.3,3.8,8.9,3.8C655.7,96.9,657.8,96.3,659.8,95.2z"/>
</g>
<path class="st1" d="M587.1,98c-4.8,0-8.8,3.9-8.8,8.8c0,4.8,3.9,8.8,8.8,8.8c4.8,0,8.8-3.9,8.8-8.8S592,98,587.1,98L587.1,98z
	 M587.1,110.7c-2.2,0-3.9-1.7-3.9-3.9s1.7-3.9,3.9-3.9c2.2,0,3.9,1.7,3.9,3.9C591,108.9,589.3,110.7,587.1,110.7z"/>
</svg>
