<svg id="Layer_1" data-name="Layer 1" xmlns="http://www.w3.org/2000/svg" viewBox="0 0 42 46"><defs><style>.cls-1{fill:#77777a;}</style></defs><path class="cls-1" d="M43.91,12,27.07,2.54a4.24,4.24,0,0,0-4.14,0L6.09,12A4.08,4.08,0,0,0,4,15.54V34.46A4.08,4.08,0,0,0,6.09,38l16.84,9.46a4.24,4.24,0,0,0,4.14,0L43.91,38A4.08,4.08,0,0,0,46,34.46V15.54A4.08,4.08,0,0,0,43.91,12ZM25,37a12,12,0,1,1,9.54-19.26l-4.38,2.54a7,7,0,1,0,0,9.44l4.38,2.54A11.92,11.92,0,0,1,25,37ZM37,26H35v2H33V26H31V24h2V22h2v2h2Zm7,0H42v2H40V26H38V24h2V22h2v2h2Z" transform="translate(-4 -2)"/><polygon class="cls-1" points="40 22 40 24 38 24 38 26 36 26 36 24 34 24 34 22 36 22 36 20 38 20 38 22 40 22"/><polygon class="cls-1" points="33 22 33 24 31 24 31 26 29 26 29 24 27 24 27 22 29 22 29 20 31 20 31 22 33 22"/></svg>