<?xml version="1.0" encoding="utf-8"?>
<!-- Generator: Adobe Illustrator 24.3.0, SVG Export Plug-In . SVG Version: 6.00 Build 0)  -->
<svg version="1.1" id="Layer_1" xmlns="http://www.w3.org/2000/svg" xmlns:xlink="http://www.w3.org/1999/xlink" x="0px" y="0px"
	 viewBox="0 0 522.6 94.9" style="enable-background:new 0 0 522.6 94.9;" xml:space="preserve">
<style type="text/css">
	.st0{fill:#23D1EE;}
	.st1{fill:#FFFFFF;}
</style>
<g>
	<g>
		<path class="st0" d="M18.1,44.5h1c1.6,0,2.8,1.3,2.8,2.8v1.1c0,1.6-1.3,2.8-2.8,2.8h-1c-1.6,0-2.8-1.3-2.8-2.8v-1.1
			C15.3,45.8,16.6,44.5,18.1,44.5z"/>
		<path class="st0" d="M18.1,58.8h7.7c1.6,0,2.8,1.3,2.8,2.8v1.1c0,1.6-1.3,2.8-2.8,2.8h-7.7c-1.6,0-2.8-1.3-2.8-2.8v-1.1
			C15.3,60,16.6,58.8,18.1,58.8z"/>
		<path class="st0" d="M35,44.5h12.7c1.9,0,3.3,1.5,3.3,3.3v0.1c0,1.9-1.5,3.3-3.3,3.3H35c-1.9,0-3.3-1.5-3.3-3.3v-0.1
			C31.7,46,33.2,44.5,35,44.5z"/>
		<path class="st0" d="M24.3,29.4H49c1.6,0,2.8,1.3,2.8,2.8v1.1c0,1.6-1.3,2.8-2.8,2.8H24.3c-1.6,0-2.8-1.3-2.8-2.8v-1.1
			C21.4,30.7,22.7,29.4,24.3,29.4z"/>
		<path class="st0" d="M60.1,29.4h2.5c1.6,0,2.8,1.3,2.8,2.8v1.1c0,1.6-1.3,2.8-2.8,2.8h-2.5c-1.6,0-2.8-1.3-2.8-2.8v-1.1
			C57.3,30.7,58.5,29.4,60.1,29.4z"/>
		<path class="st0" d="M40.1,58.8h23.5c1.6,0,2.8,1.3,2.8,2.8v1.1c0,1.6-1.3,2.8-2.8,2.8H40.1c-1.6,0-2.8-1.3-2.8-2.8v-1.1
			C37.3,60,38.5,58.8,40.1,58.8z"/>
		<path class="st0" d="M62.7,44.1h30c1.6,0,2.8,1.3,2.8,2.8V48c0,1.6-1.3,2.8-2.8,2.8h-30c-1.6,0-2.8-1.3-2.8-2.8v-1.1
			C59.8,45.3,61.1,44.1,62.7,44.1z"/>
		<path class="st0" d="M91.5,58.8h1.1c1.6,0,2.8,1.3,2.8,2.8v1.1c0,1.6-1.3,2.8-2.8,2.8h-1.1c-1.6,0-2.8-1.3-2.8-2.8v-1.1
			C88.7,60,90,58.8,91.5,58.8z"/>
		<path class="st0" d="M77.3,29.4h15.5c1.6,0,2.8,1.3,2.8,2.8v1.1c0,1.6-1.3,2.8-2.8,2.8H77.3c-1.6,0-2.8-1.3-2.8-2.8v-1.1
			C74.4,30.7,75.7,29.4,77.3,29.4z"/>
		<path class="st0" d="M93,14.6H17.6C7.9,14.6,0,22.5,0,32.2v30.4c0,9.8,7.9,17.7,17.6,17.7H93c9.7,0,17.6-7.9,17.6-17.6l0,0V32.2
			C110.6,22.5,102.7,14.6,93,14.6L93,14.6z M103.4,62.9c0,5.9-4.8,10.8-10.8,10.8l0,0H18.5c-5.9,0-10.8-4.8-10.8-10.7l0,0V33
			c0-5.9,4.8-10.8,10.8-10.8l0,0h74.1c5.9,0,10.8,4.8,10.8,10.8l0,0V62.9z"/>
		<path class="st0" d="M18.1,44.5h1c1.6,0,2.8,1.3,2.8,2.8v1.1c0,1.6-1.3,2.8-2.8,2.8h-1c-1.6,0-2.8-1.3-2.8-2.8v-1.1
			C15.3,45.8,16.6,44.5,18.1,44.5z"/>
		<path class="st0" d="M18.1,58.8h7.7c1.6,0,2.8,1.3,2.8,2.8v1.1c0,1.6-1.3,2.8-2.8,2.8h-7.7c-1.6,0-2.8-1.3-2.8-2.8v-1.1
			C15.3,60,16.6,58.8,18.1,58.8z"/>
		<path class="st0" d="M35,44.5h12.7c1.9,0,3.3,1.5,3.3,3.3v0.1c0,1.9-1.5,3.3-3.3,3.3H35c-1.9,0-3.3-1.5-3.3-3.3v-0.1
			C31.7,46,33.2,44.5,35,44.5z"/>
		<path class="st0" d="M24.3,29.4H49c1.6,0,2.8,1.3,2.8,2.8v1.1c0,1.6-1.3,2.8-2.8,2.8H24.3c-1.6,0-2.8-1.3-2.8-2.8v-1.1
			C21.4,30.7,22.7,29.4,24.3,29.4z"/>
		<path class="st0" d="M60.1,29.4h2.5c1.6,0,2.8,1.3,2.8,2.8v1.1c0,1.6-1.3,2.8-2.8,2.8h-2.5c-1.6,0-2.8-1.3-2.8-2.8v-1.1
			C57.3,30.7,58.5,29.4,60.1,29.4z"/>
		<path class="st0" d="M40.1,58.8h23.5c1.6,0,2.8,1.3,2.8,2.8v1.1c0,1.6-1.3,2.8-2.8,2.8H40.1c-1.6,0-2.8-1.3-2.8-2.8v-1.1
			C37.3,60,38.5,58.8,40.1,58.8z"/>
		<path class="st0" d="M62.7,44.1h30c1.6,0,2.8,1.3,2.8,2.8V48c0,1.6-1.3,2.8-2.8,2.8h-30c-1.6,0-2.8-1.3-2.8-2.8v-1.1
			C59.8,45.3,61.1,44.1,62.7,44.1z"/>
		<path class="st0" d="M91.5,58.8h1.1c1.6,0,2.8,1.3,2.8,2.8v1.1c0,1.6-1.3,2.8-2.8,2.8h-1.1c-1.6,0-2.8-1.3-2.8-2.8v-1.1
			C88.7,60,90,58.8,91.5,58.8z"/>
		<path class="st0" d="M77.3,29.4h15.5c1.6,0,2.8,1.3,2.8,2.8v1.1c0,1.6-1.3,2.8-2.8,2.8H77.3c-1.6,0-2.8-1.3-2.8-2.8v-1.1
			C74.4,30.7,75.7,29.4,77.3,29.4z"/>
		<path class="st0" d="M77.3,29.4h15.5c1.6,0,2.8,1.3,2.8,2.8v1.1c0,1.6-1.3,2.8-2.8,2.8H77.3c-1.6,0-2.8-1.3-2.8-2.8v-1.1
			C74.4,30.7,75.7,29.4,77.3,29.4z"/>
		<path class="st0" d="M40.1,58.8h23.5c1.6,0,2.8,1.3,2.8,2.8v1.1c0,1.6-1.3,2.8-2.8,2.8H40.1c-1.6,0-2.8-1.3-2.8-2.8v-1.1
			C37.3,60,38.5,58.8,40.1,58.8z"/>
		<path class="st0" d="M18.1,58.8h7.7c1.6,0,2.8,1.3,2.8,2.8v1.1c0,1.6-1.3,2.8-2.8,2.8h-7.7c-1.6,0-2.8-1.3-2.8-2.8v-1.1
			C15.3,60,16.6,58.8,18.1,58.8z"/>
		<path class="st0" d="M60.1,29.4h2.5c1.6,0,2.8,1.3,2.8,2.8v1.1c0,1.6-1.3,2.8-2.8,2.8h-2.5c-1.6,0-2.8-1.3-2.8-2.8v-1.1
			C57.3,30.7,58.5,29.4,60.1,29.4z"/>
		<path class="st0" d="M91.5,58.8h1.1c1.6,0,2.8,1.3,2.8,2.8v1.1c0,1.6-1.3,2.8-2.8,2.8h-1.1c-1.6,0-2.8-1.3-2.8-2.8v-1.1
			C88.7,60,90,58.8,91.5,58.8z"/>
		<path class="st0" d="M62.7,44.1h30c1.6,0,2.8,1.3,2.8,2.8V48c0,1.6-1.3,2.8-2.8,2.8h-30c-1.6,0-2.8-1.3-2.8-2.8v-1.1
			C59.8,45.3,61.1,44.1,62.7,44.1z"/>
		<path class="st0" d="M24.3,29.4H49c1.6,0,2.8,1.3,2.8,2.8v1.1c0,1.6-1.3,2.8-2.8,2.8H24.3c-1.6,0-2.8-1.3-2.8-2.8v-1.1
			C21.4,30.7,22.7,29.4,24.3,29.4z"/>
		<path class="st0" d="M18.1,44.5h1c1.6,0,2.8,1.3,2.8,2.8v1.1c0,1.6-1.3,2.8-2.8,2.8h-1c-1.6,0-2.8-1.3-2.8-2.8v-1.1
			C15.3,45.8,16.6,44.5,18.1,44.5z"/>
		<path class="st0" d="M35,44.5h12.7c1.9,0,3.3,1.5,3.3,3.3v0.1c0,1.9-1.5,3.3-3.3,3.3H35c-1.9,0-3.3-1.5-3.3-3.3v-0.1
			C31.7,46,33.2,44.5,35,44.5z"/>
	</g>
	<g>
		<polygon class="st1" points="120.7,21.9 120.7,73 131.4,73 160.3,31.6 160.3,21.9 149.9,21.9 149.9,28.4 131.1,54.5 131.1,21.9 		
			"/>
		<polygon class="st1" points="149.6,51.2 164.6,73 151.9,73 142.9,60 149.1,50.7 		"/>
		<rect x="168.2" y="21.9" class="st1" width="35" height="10.5"/>
		<polygon class="st1" points="168.2,40.1 192.6,40.1 192.6,50.1 178.7,50.1 178.7,63.1 217.3,63.1 217.3,73 168.2,73 		"/>
		<polygon class="st1" points="206.6,21.9 206.6,47.1 221.3,55.8 221.3,73 231.6,73 231.6,55.7 236.1,53.2 216.7,41.2 216.7,21.9 		
			"/>
		<polygon class="st1" points="236.1,21.9 246.5,21.9 246.5,47.1 239.3,51.7 229.5,45.3 236.1,41.3 		"/>
		<polygon class="st1" points="250,34.8 250,73 260.7,73 260.7,56.8 290.1,41.2 290.1,21.9 250,21.9 250,32.4 279.8,32.4 
			279.8,34.4 260.5,45.2 260.5,34.8 		"/>
		<polygon class="st1" points="293.6,21.9 293.6,73 333.4,73 333.4,21.9 323.1,21.9 323.1,63.2 303.5,63.2 303.5,31.6 320.8,31.6 
			320.8,21.9 		"/>
		<rect x="337.5" y="21.9" class="st1" width="10.2" height="38"/>
		<rect x="337.5" y="63.2" class="st1" width="34.4" height="9.8"/>
		<polygon class="st1" points="353.2,60 379.9,21.9 390.5,21.9 390.5,25.1 372.8,49.8 380.1,49.8 380.1,43.6 390.5,29.7 390.5,73 
			380.3,73 380.3,60 		"/>
		<path class="st1" d="M394.1,21.9v51h10.2V57.2l29.6-16.2v-19H394.1z M423.7,34.8l-19.5,10V32.1h19.5V34.8z"/>
		<polygon class="st1" points="413.1,55.2 421.8,50.2 438.2,73 425.1,73 		"/>
		<rect x="439.4" y="34.7" class="st1" width="10.6" height="38.3"/>
		<polygon class="st1" points="439.4,32.1 439.4,21.9 464.5,21.9 464.5,73 454.7,73 454.7,32.1 		"/>
		<rect x="467.4" y="21.9" class="st1" width="11.7" height="10.1"/>
		<polygon class="st1" points="483,21.9 483,47.1 497.9,55.8 497.9,73 508.2,73 508.2,55.8 513,53.2 493.6,41.4 493.6,21.9 		"/>
		<polygon class="st1" points="512.5,21.9 522.6,21.9 522.6,47.4 515.6,51.6 505.5,45.4 512.5,41.2 		"/>
	</g>
</g>
</svg>
