<?xml version="1.0" encoding="utf-8"?>
<!-- Generator: Adobe Illustrator 24.3.0, SVG Export Plug-In . SVG Version: 6.00 Build 0)  -->
<svg version="1.1" id="Layer_3" xmlns="http://www.w3.org/2000/svg" xmlns:xlink="http://www.w3.org/1999/xlink" x="0px" y="0px"
	 viewBox="0 0 110.6 65.6" style="enable-background:new 0 0 110.6 65.6;" xml:space="preserve">
<style type="text/css">
	.st0{fill:#23D1EE;}
</style>
<g>
	<path class="st0" d="M18.1,29.8h1c1.6,0,2.8,1.3,2.8,2.8v1.1c0,1.6-1.3,2.8-2.8,2.8h-1c-1.6,0-2.8-1.3-2.8-2.8v-1.1
		C15.3,31.1,16.6,29.8,18.1,29.8z"/>
	<path class="st0" d="M18.1,44.1h7.7c1.6,0,2.8,1.3,2.8,2.8V48c0,1.6-1.3,2.8-2.8,2.8h-7.7c-1.6,0-2.8-1.3-2.8-2.8v-1
		C15.3,45.4,16.6,44.1,18.1,44.1z"/>
	<path class="st0" d="M35,29.8h12.7c1.9,0,3.3,1.5,3.3,3.3v0.1c0,1.9-1.5,3.3-3.3,3.3H35c-1.9,0-3.3-1.5-3.3-3.3v-0.1
		C31.7,31.3,33.2,29.8,35,29.8z"/>
	<path class="st0" d="M24.3,14.8H49c1.6,0,2.8,1.3,2.8,2.8v1.1c0,1.6-1.3,2.8-2.8,2.8H24.3c-1.6,0-2.8-1.3-2.8-2.8v-1.1
		C21.4,16,22.7,14.8,24.3,14.8z"/>
	<path class="st0" d="M60.1,14.8h2.5c1.6,0,2.8,1.3,2.8,2.8v1.1c0,1.6-1.3,2.8-2.8,2.8h-2.5c-1.6,0-2.8-1.3-2.8-2.8v-1.1
		C57.3,16,58.5,14.8,60.1,14.8z"/>
	<path class="st0" d="M40.1,44.1h23.5c1.6,0,2.8,1.3,2.8,2.8V48c0,1.6-1.3,2.8-2.8,2.8H40.1c-1.6,0-2.8-1.3-2.8-2.8v-1
		C37.3,45.4,38.5,44.1,40.1,44.1z"/>
	<path class="st0" d="M62.7,29.4h30c1.6,0,2.8,1.3,2.8,2.8v1.1c0,1.6-1.3,2.8-2.8,2.8h-30c-1.6,0-2.8-1.3-2.8-2.8v-1.1
		C59.8,30.7,61.1,29.4,62.7,29.4z"/>
	<path class="st0" d="M91.5,44.1h1.1c1.6,0,2.8,1.3,2.8,2.8V48c0,1.6-1.3,2.8-2.8,2.8h-1.1c-1.6,0-2.8-1.3-2.8-2.8v-1
		C88.7,45.4,90,44.1,91.5,44.1z"/>
	<path class="st0" d="M77.3,14.8h15.5c1.6,0,2.8,1.3,2.8,2.8v1.1c0,1.6-1.3,2.8-2.8,2.8H77.3c-1.6,0-2.8-1.3-2.8-2.8v-1.1
		C74.4,16,75.7,14.8,77.3,14.8z"/>
	<path class="st0" d="M93,0H17.6C7.9,0,0,7.9,0,17.6V48c0,9.7,7.9,17.6,17.6,17.6H93c9.7,0,17.6-7.9,17.6-17.6l0,0V17.6
		C110.6,7.9,102.7,0,93,0L93,0z M103.4,48.2c0,5.9-4.8,10.8-10.8,10.8l0,0H18.5c-5.9,0-10.8-4.8-10.8-10.7l0,0v-30
		c0-5.9,4.8-10.8,10.8-10.8l0,0h74.1c5.9,0,10.8,4.8,10.8,10.8l0,0V48.2z"/>
	<path class="st0" d="M18.1,29.8h1c1.6,0,2.8,1.3,2.8,2.8v1.1c0,1.6-1.3,2.8-2.8,2.8h-1c-1.6,0-2.8-1.3-2.8-2.8v-1.1
		C15.3,31.1,16.6,29.8,18.1,29.8z"/>
	<path class="st0" d="M18.1,44.1h7.7c1.6,0,2.8,1.3,2.8,2.8V48c0,1.6-1.3,2.8-2.8,2.8h-7.7c-1.6,0-2.8-1.3-2.8-2.8v-1
		C15.3,45.4,16.6,44.1,18.1,44.1z"/>
	<path class="st0" d="M35,29.8h12.7c1.9,0,3.3,1.5,3.3,3.3v0.1c0,1.9-1.5,3.3-3.3,3.3H35c-1.9,0-3.3-1.5-3.3-3.3v-0.1
		C31.7,31.3,33.2,29.8,35,29.8z"/>
	<path class="st0" d="M24.3,14.8H49c1.6,0,2.8,1.3,2.8,2.8v1.1c0,1.6-1.3,2.8-2.8,2.8H24.3c-1.6,0-2.8-1.3-2.8-2.8v-1.1
		C21.4,16,22.7,14.8,24.3,14.8z"/>
	<path class="st0" d="M60.1,14.8h2.5c1.6,0,2.8,1.3,2.8,2.8v1.1c0,1.6-1.3,2.8-2.8,2.8h-2.5c-1.6,0-2.8-1.3-2.8-2.8v-1.1
		C57.3,16,58.5,14.8,60.1,14.8z"/>
	<path class="st0" d="M40.1,44.1h23.5c1.6,0,2.8,1.3,2.8,2.8V48c0,1.6-1.3,2.8-2.8,2.8H40.1c-1.6,0-2.8-1.3-2.8-2.8v-1
		C37.3,45.4,38.5,44.1,40.1,44.1z"/>
	<path class="st0" d="M62.7,29.4h30c1.6,0,2.8,1.3,2.8,2.8v1.1c0,1.6-1.3,2.8-2.8,2.8h-30c-1.6,0-2.8-1.3-2.8-2.8v-1.1
		C59.8,30.7,61.1,29.4,62.7,29.4z"/>
	<path class="st0" d="M91.5,44.1h1.1c1.6,0,2.8,1.3,2.8,2.8V48c0,1.6-1.3,2.8-2.8,2.8h-1.1c-1.6,0-2.8-1.3-2.8-2.8v-1
		C88.7,45.4,90,44.1,91.5,44.1z"/>
	<path class="st0" d="M77.3,14.8h15.5c1.6,0,2.8,1.3,2.8,2.8v1.1c0,1.6-1.3,2.8-2.8,2.8H77.3c-1.6,0-2.8-1.3-2.8-2.8v-1.1
		C74.4,16,75.7,14.8,77.3,14.8z"/>
	<path class="st0" d="M77.3,14.8h15.5c1.6,0,2.8,1.3,2.8,2.8v1.1c0,1.6-1.3,2.8-2.8,2.8H77.3c-1.6,0-2.8-1.3-2.8-2.8v-1.1
		C74.4,16,75.7,14.8,77.3,14.8z"/>
	<path class="st0" d="M40.1,44.1h23.5c1.6,0,2.8,1.3,2.8,2.8V48c0,1.6-1.3,2.8-2.8,2.8H40.1c-1.6,0-2.8-1.3-2.8-2.8v-1
		C37.3,45.4,38.5,44.1,40.1,44.1z"/>
	<path class="st0" d="M18.1,44.1h7.7c1.6,0,2.8,1.3,2.8,2.8V48c0,1.6-1.3,2.8-2.8,2.8h-7.7c-1.6,0-2.8-1.3-2.8-2.8v-1
		C15.3,45.4,16.6,44.1,18.1,44.1z"/>
	<path class="st0" d="M60.1,14.8h2.5c1.6,0,2.8,1.3,2.8,2.8v1.1c0,1.6-1.3,2.8-2.8,2.8h-2.5c-1.6,0-2.8-1.3-2.8-2.8v-1.1
		C57.3,16,58.5,14.8,60.1,14.8z"/>
	<path class="st0" d="M91.5,44.1h1.1c1.6,0,2.8,1.3,2.8,2.8V48c0,1.6-1.3,2.8-2.8,2.8h-1.1c-1.6,0-2.8-1.3-2.8-2.8v-1
		C88.7,45.4,90,44.1,91.5,44.1z"/>
	<path class="st0" d="M62.7,29.4h30c1.6,0,2.8,1.3,2.8,2.8v1.1c0,1.6-1.3,2.8-2.8,2.8h-30c-1.6,0-2.8-1.3-2.8-2.8v-1.1
		C59.8,30.7,61.1,29.4,62.7,29.4z"/>
	<path class="st0" d="M24.3,14.8H49c1.6,0,2.8,1.3,2.8,2.8v1.1c0,1.6-1.3,2.8-2.8,2.8H24.3c-1.6,0-2.8-1.3-2.8-2.8v-1.1
		C21.4,16,22.7,14.8,24.3,14.8z"/>
	<path class="st0" d="M18.1,29.8h1c1.6,0,2.8,1.3,2.8,2.8v1.1c0,1.6-1.3,2.8-2.8,2.8h-1c-1.6,0-2.8-1.3-2.8-2.8v-1.1
		C15.3,31.1,16.6,29.8,18.1,29.8z"/>
	<path class="st0" d="M35,29.8h12.7c1.9,0,3.3,1.5,3.3,3.3v0.1c0,1.9-1.5,3.3-3.3,3.3H35c-1.9,0-3.3-1.5-3.3-3.3v-0.1
		C31.7,31.3,33.2,29.8,35,29.8z"/>
</g>
</svg>
