<svg id="Layer_4" data-name="Layer 4" xmlns="http://www.w3.org/2000/svg" viewBox="0 0 260.42 262.37"><defs><style>.cls-1{fill:#fff;}</style></defs><path class="cls-1" d="M539.8,442.23c2.11-8.44,6.15-16,12-23.56,6.66-8.6,15-16.07,24.75-20.9a59,59,0,0,1,26.07-6c10,0,19.07.65,28.46,4.75,10,4.39,18.45,11.85,24.81,20.67S668.3,436.81,668.3,448v74H538.54s0-33,0-35.2c0-10.14-.5-20.27-.45-30.42A59.59,59.59,0,0,1,539.8,442.23Z" transform="translate(-537.08 -263.63)"/><path class="cls-1" d="M794.78,347.62c-2.12,8.44-6.16,16-12,23.56-6.66,8.6-14.94,16.07-24.74,20.9a58.93,58.93,0,0,1-26.07,6c-10,0-19.08-.65-28.46-4.75-10-4.38-18.45-11.85-24.82-20.67S666.28,353,666.28,341.88V267.83H796s0,33,0,35.2c0,10.14.5,20.28.45,30.42A59,59,0,0,1,794.78,347.62Z" transform="translate(-537.08 -263.63)"/><path class="cls-1" d="M611.63,263.84c7,.75,14,4,20.16,7.17C649,280,662,295.13,665.68,314.46a69.1,69.1,0,0,1,1.16,10.83v68.6H537.08V263.63h70.18A40.93,40.93,0,0,1,611.63,263.84Z" transform="translate(-537.08 -263.63)"/><path class="cls-1" d="M722.94,525.81c-7-.7-14-3.89-20.19-7-17.24-8.85-30.36-23.94-34.15-43.25a69.05,69.05,0,0,1-1.22-10.83l-.4-68.59,129.76-.75.76,130.25-43.33.25-26.86.16A38.55,38.55,0,0,1,722.94,525.81Z" transform="translate(-537.08 -263.63)"/></svg>