<svg xmlns="http://www.w3.org/2000/svg" viewBox="0 0 384 384"><defs><style>.cls-1{fill:#fff;}</style></defs><g id="Layer_1" data-name="Layer 1"><g id="Layer_3" data-name="Layer 3"><path class="cls-1" d="M101.9,228.57a44.59,44.59,0,0,1,8.57-16.76A50.14,50.14,0,0,1,128.09,197a41.79,41.79,0,0,1,18.57-4.28c7.14,0,13.62.47,20.29,3.33a43.76,43.76,0,0,1,17.71,14.76c4.57,6.29,8.86,14,8.86,21.91v52.76H101V260.38c0-7.24-.38-14.48-.28-21.71A39.48,39.48,0,0,1,101.9,228.57Z"/><path class="cls-1" d="M283.61,161.14A44.44,44.44,0,0,1,275,177.9a51.2,51.2,0,0,1-17.62,15,41.9,41.9,0,0,1-18.57,4.28c-7.14,0-13.62-.47-20.28-3.33a43.79,43.79,0,0,1-17.72-14.76c-4.57-6.29-8.86-14-8.86-21.91V104.29h92.48v25c0,7.24.38,14.48.29,21.72A39.87,39.87,0,0,1,283.61,161.14Z"/><path class="cls-1" d="M153.14,101.43c5,.57,10,2.86,14.38,5.14,12.28,6.38,21.52,17.14,24.19,31a53.33,53.33,0,0,1,.86,7.72v48.85H100.09V101.33h50A16.66,16.66,0,0,1,153.14,101.43Z"/><path class="cls-1" d="M232.38,288.09c-5-.47-10-2.76-14.39-5-12.28-6.29-21.61-17.05-24.28-30.86a53.17,53.17,0,0,1-.86-7.72l-.28-48.85,92.47-.57.57,92.85-30.85.19-19.15.1C234.47,288.19,233.42,288.19,232.38,288.09Z"/></g></g></svg>