<?xml version="1.0" encoding="utf-8"?>
<!-- Generator: Adobe Illustrator 24.3.0, SVG Export Plug-In . SVG Version: 6.00 Build 0)  -->
<svg version="1.1" id="Layer_5" xmlns="http://www.w3.org/2000/svg" xmlns:xlink="http://www.w3.org/1999/xlink" x="0px" y="0px"
	 viewBox="0 0 889.4 168.5" style="enable-background:new 0 0 889.4 168.5;" xml:space="preserve">
<style type="text/css">
	.st0{enable-background:new    ;}
	.st1{fill:#FFFFFF;}
</style>
<g class="st0">
	<path class="st1" d="M203.4,77.3c2.1-3.8,5-6.8,8.7-8.9c3.7-2.1,7.9-3.2,12.7-3.2c6.1,0,11.2,1.5,15.2,4.6c4,3.1,6.7,7.4,8.1,12.9
		h-13.5c-0.7-2.1-1.9-3.8-3.6-5c-1.7-1.2-3.8-1.8-6.3-1.8c-3.6,0-6.4,1.3-8.5,3.9c-2.1,2.6-3.1,6.3-3.1,11c0,4.7,1,8.4,3.1,10.9
		c2.1,2.6,4.9,3.9,8.5,3.9c5.1,0,8.4-2.3,9.9-6.8H248c-1.4,5.4-4.1,9.6-8.1,12.8c-4.1,3.2-9.1,4.7-15.2,4.7c-4.8,0-9-1.1-12.7-3.2
		c-3.7-2.1-6.6-5.1-8.7-8.9c-2.1-3.8-3.1-8.3-3.1-13.4C200.2,85.6,201.3,81.1,203.4,77.3z"/>
	<path class="st1" d="M266.4,113.1c-3.8-2.1-6.8-5.1-9-9c-2.2-3.9-3.3-8.3-3.3-13.4c0-5.1,1.1-9.5,3.4-13.4c2.2-3.9,5.3-6.9,9.2-9
		c3.9-2.1,8.2-3.2,13-3.2c4.8,0,9.1,1.1,13,3.2c3.9,2.1,6.9,5.1,9.2,9c2.2,3.9,3.4,8.3,3.4,13.4c0,5.1-1.1,9.5-3.4,13.4
		c-2.3,3.9-5.4,6.9-9.3,9c-3.9,2.1-8.3,3.2-13.1,3.2C274.5,116.3,270.2,115.2,266.4,113.1z M285.6,103.8c2-1.1,3.6-2.8,4.8-5
		c1.2-2.2,1.8-4.9,1.8-8c0-4.7-1.2-8.3-3.7-10.9c-2.5-2.5-5.5-3.8-9.1-3.8c-3.6,0-6.6,1.3-9,3.8c-2.4,2.5-3.6,6.2-3.6,10.9
		c0,4.7,1.2,8.3,3.5,10.9c2.4,2.5,5.3,3.8,8.9,3.8C281.5,105.4,283.6,104.9,285.6,103.8z"/>
	<path class="st1" d="M314,77.3c2-3.9,4.7-6.8,8.2-8.9c3.5-2.1,7.3-3.1,11.5-3.1c3.2,0,6.3,0.7,9.2,2.1c2.9,1.4,5.2,3.3,7,5.6V49.4
		h12.7v66.1h-12.7v-7.3c-1.5,2.4-3.7,4.4-6.5,5.9c-2.8,1.5-6,2.2-9.7,2.2c-4.2,0-8-1.1-11.4-3.2c-3.5-2.1-6.2-5.2-8.2-9.1
		c-2-3.9-3-8.4-3-13.4C311,85.6,312,81.1,314,77.3z M348.2,82.9c-1.2-2.2-2.8-3.8-4.8-5c-2-1.2-4.2-1.7-6.5-1.7
		c-2.3,0-4.5,0.6-6.4,1.7c-2,1.1-3.6,2.8-4.8,5c-1.2,2.2-1.8,4.8-1.8,7.7c0,3,0.6,5.6,1.8,7.8c1.2,2.2,2.8,3.9,4.8,5.1
		c2,1.2,4.1,1.8,6.4,1.8c2.3,0,4.5-0.6,6.5-1.7c2-1.2,3.6-2.8,4.8-5c1.2-2.2,1.8-4.8,1.8-7.8S349.4,85.1,348.2,82.9z"/>
	<path class="st1" d="M420.5,94.5h-36.2c0.3,3.6,1.5,6.4,3.8,8.4c2.2,2,4.9,3,8.1,3c4.6,0,8-2,9.9-6h13.5c-1.4,4.8-4.2,8.7-8.2,11.7
		c-4.1,3.1-9,4.6-14.9,4.6c-4.8,0-9-1.1-12.8-3.2c-3.8-2.1-6.7-5.1-8.8-9c-2.1-3.9-3.2-8.3-3.2-13.4c0-5.1,1-9.6,3.1-13.5
		c2.1-3.9,5-6.8,8.8-8.9c3.8-2.1,8.1-3.1,13-3.1c4.7,0,8.9,1,12.6,3c3.7,2,6.6,4.9,8.7,8.6c2.1,3.7,3.1,8,3.1,12.8
		C420.8,91.5,420.7,93.1,420.5,94.5z M407.9,86.1c-0.1-3.2-1.2-5.8-3.5-7.7c-2.3-1.9-5-2.9-8.3-2.9c-3.1,0-5.7,0.9-7.8,2.8
		c-2.1,1.9-3.4,4.5-3.9,7.8H407.9z"/>
	<path class="st1" d="M449.1,67.5c2.8-1.5,6.1-2.3,9.7-2.3c4.2,0,8.1,1,11.5,3.1c3.4,2.1,6.1,5,8.1,8.9c2,3.8,3,8.3,3,13.4
		c0,5.1-1,9.5-3,13.4c-2,3.9-4.7,6.9-8.1,9.1c-3.4,2.1-7.3,3.2-11.5,3.2c-3.6,0-6.8-0.7-9.6-2.2c-2.8-1.5-5-3.4-6.7-5.6v30.6H430V66
		h12.5v7.1C444.1,70.9,446.3,69,449.1,67.5z M466.8,82.8c-1.2-2.2-2.8-3.8-4.8-5c-2-1.1-4.2-1.7-6.5-1.7c-2.3,0-4.4,0.6-6.4,1.7
		c-2,1.2-3.6,2.8-4.8,5c-1.2,2.2-1.8,4.8-1.8,7.8c0,3,0.6,5.6,1.8,7.8c1.2,2.2,2.8,3.9,4.8,5c2,1.2,4.1,1.7,6.4,1.7
		c2.3,0,4.5-0.6,6.5-1.8c2-1.2,3.6-2.9,4.8-5.1c1.2-2.2,1.8-4.8,1.8-7.9C468.6,87.6,468,85,466.8,82.8z"/>
	<path class="st1" d="M499.6,113.1c-3.8-2.1-6.8-5.1-9-9c-2.2-3.9-3.3-8.3-3.3-13.4c0-5.1,1.1-9.5,3.4-13.4c2.2-3.9,5.3-6.9,9.2-9
		c3.9-2.1,8.2-3.2,13-3.2c4.8,0,9.1,1.1,13,3.2c3.9,2.1,6.9,5.1,9.2,9c2.2,3.9,3.4,8.3,3.4,13.4c0,5.1-1.1,9.5-3.4,13.4
		c-2.3,3.9-5.4,6.9-9.3,9c-3.9,2.1-8.3,3.2-13.1,3.2C507.7,116.3,503.5,115.2,499.6,113.1z M518.9,103.8c2-1.1,3.6-2.8,4.8-5
		c1.2-2.2,1.8-4.9,1.8-8c0-4.7-1.2-8.3-3.7-10.9c-2.5-2.5-5.5-3.8-9.1-3.8s-6.6,1.3-9,3.8c-2.4,2.5-3.6,6.2-3.6,10.9
		c0,4.7,1.2,8.3,3.5,10.9c2.4,2.5,5.3,3.8,8.9,3.8C514.8,105.4,516.9,104.9,518.9,103.8z"/>
	<path class="st1" d="M560,49.4v66.1h-12.5V49.4H560z"/>
	<path class="st1" d="M572.2,77.3c2-3.9,4.7-6.8,8.1-8.9c3.4-2.1,7.3-3.1,11.5-3.1c3.7,0,6.9,0.7,9.7,2.2c2.8,1.5,5,3.4,6.7,5.6V66
		h12.6v49.5h-12.6v-7.2c-1.6,2.3-3.8,4.2-6.7,5.8c-2.8,1.5-6.1,2.3-9.8,2.3c-4.2,0-8-1.1-11.4-3.2c-3.4-2.1-6.1-5.2-8.1-9.1
		c-2-3.9-3-8.4-3-13.4C569.2,85.6,570.2,81.1,572.2,77.3z M606.3,82.9c-1.2-2.2-2.8-3.8-4.8-5c-2-1.2-4.2-1.7-6.5-1.7
		s-4.5,0.6-6.4,1.7c-2,1.1-3.6,2.8-4.8,5c-1.2,2.2-1.8,4.8-1.8,7.7c0,3,0.6,5.6,1.8,7.8c1.2,2.2,2.8,3.9,4.8,5.1
		c2,1.2,4.1,1.8,6.4,1.8c2.3,0,4.5-0.6,6.5-1.7c2-1.2,3.6-2.8,4.8-5c1.2-2.2,1.8-4.8,1.8-7.8S607.5,85.1,606.3,82.9z"/>
	<path class="st1" d="M651.8,67.5c2.6-1.5,5.6-2.2,8.9-2.2v13.1h-3.3c-3.9,0-6.9,0.9-8.9,2.8c-2,1.8-3,5.1-3,9.7v24.7H633V66h12.5
		v7.7C647.1,71.1,649.2,69,651.8,67.5z"/>
	<path class="st1" d="M669.9,58c-1.5-1.4-2.2-3.1-2.2-5.2c0-2.1,0.7-3.8,2.2-5.2c1.5-1.4,3.3-2.1,5.5-2.1c2.2,0,4,0.7,5.5,2.1
		c1.5,1.4,2.2,3.1,2.2,5.2c0,2.1-0.7,3.8-2.2,5.2c-1.5,1.4-3.3,2.1-5.5,2.1C673.2,60.1,671.4,59.4,669.9,58z M681.6,66v49.5h-12.5
		V66H681.6z"/>
	<path class="st1" d="M708.5,76.3v23.9c0,1.7,0.4,2.9,1.2,3.6c0.8,0.7,2.2,1.1,4.1,1.1h5.8v10.5h-7.9c-10.5,0-15.8-5.1-15.8-15.4
		V76.3H690V66h5.9V53.8h12.6V66h11.1v10.3H708.5z"/>
	<path class="st1" d="M775.9,66l-30.6,72.9H732l10.7-24.7L722.8,66h14l12.8,34.6l13-34.6H775.9z"/>
	<path class="st1" d="M804.7,58c-1.5-1.4-2.2-3.1-2.2-5.2c0-2.1,0.7-3.8,2.2-5.2c1.5-1.4,3.3-2.1,5.5-2.1c2.2,0,4,0.7,5.5,2.1
		c1.5,1.4,2.2,3.1,2.2,5.2c0,2.1-0.7,3.8-2.2,5.2c-1.5,1.4-3.3,2.1-5.5,2.1C808,60.1,806.2,59.4,804.7,58z M816.4,66v49.5h-12.5V66
		H816.4z"/>
	<path class="st1" d="M837.8,113.1c-3.8-2.1-6.8-5.1-9-9c-2.2-3.9-3.3-8.3-3.3-13.4c0-5.1,1.1-9.5,3.4-13.4c2.2-3.9,5.3-6.9,9.2-9
		c3.9-2.1,8.2-3.2,13-3.2c4.8,0,9.1,1.1,13,3.2c3.9,2.1,6.9,5.1,9.2,9c2.2,3.9,3.4,8.3,3.4,13.4c0,5.1-1.1,9.5-3.4,13.4
		c-2.3,3.9-5.4,6.9-9.3,9c-3.9,2.1-8.3,3.2-13.1,3.2C845.9,116.3,841.6,115.2,837.8,113.1z M857.1,103.8c2-1.1,3.6-2.8,4.8-5
		c1.2-2.2,1.8-4.9,1.8-8c0-4.7-1.2-8.3-3.7-10.9c-2.5-2.5-5.5-3.8-9.1-3.8s-6.6,1.3-9,3.8c-2.4,2.5-3.6,6.2-3.6,10.9
		c0,4.7,1.2,8.3,3.5,10.9c2.4,2.5,5.3,3.8,8.9,3.8C853,105.4,855.1,104.9,857.1,103.8z"/>
</g>
<path class="st1" d="M784.4,106.5c-4.8,0-8.8,3.9-8.8,8.8c0,4.8,3.9,8.8,8.8,8.8c4.8,0,8.8-3.9,8.8-8.8S789.3,106.5,784.4,106.5
	L784.4,106.5z M784.4,119.2c-2.2,0-3.9-1.7-3.9-3.9s1.7-3.9,3.9-3.9c2.2,0,3.9,1.7,3.9,3.9C788.3,117.5,786.6,119.2,784.4,119.2z"/>
<path class="st1" d="M1.7,111.6c1.4-5.4,4-10.4,7.5-14.7c4.1-5.5,9.4-9.9,15.5-13.1c5.1-2.5,10.6-3.8,16.3-3.8
	c6.2,0,11.9,0.4,17.8,3c6.2,2.8,11.6,7.3,15.5,12.9c4,5.5,7.8,12.3,7.8,19.2v46.3h-81c0,0,0-20.6,0-22c0-6.3-0.3-12.7-0.3-19
	C0.6,117.5,1,114.5,1.7,111.6z"/>
<path class="st1" d="M161,52.5c-1.4,5.4-4,10.4-7.5,14.7c-4.1,5.5-9.4,9.9-15.5,13.1c-5.1,2.5-10.6,3.8-16.3,3.8
	c-6.2,0-11.9-0.4-17.8-3c-6.2-2.8-11.6-7.3-15.5-12.9c-4-5.5-7.8-12.3-7.8-19.2V2.7h81.1c0,0,0,20.6,0,22c0,6.3,0.3,12.7,0.3,19
	C162.1,46.6,161.7,49.6,161,52.5z"/>
<path class="st1" d="M46.6,0.1c4.3,0.5,8.8,2.5,12.6,4.5c10.7,5.6,18.9,15.1,21.2,27.1c0.4,2.2,0.7,4.5,0.7,6.8v42.9H0V0h43.8
	C44.8,0,45.7,0,46.6,0.1z"/>
<path class="st1" d="M116.1,163.8c-4.4-0.5-8.8-2.4-12.6-4.4c-10.8-5.5-19-15-21.3-27c-0.4-2.2-0.7-4.5-0.8-6.8l-0.2-42.9l81.1-0.5
	l0.5,81.4l-27.1,0.1l-16.8,0.1C117.9,164,117,163.9,116.1,163.8z"/>
</svg>
