<?xml version="1.0" encoding="utf-8"?>
<!-- Generator: Adobe Illustrator 24.3.0, SVG Export Plug-In . SVG Version: 6.00 Build 0)  -->
<svg version="1.1" xmlns="http://www.w3.org/2000/svg" xmlns:xlink="http://www.w3.org/1999/xlink" x="0px" y="0px"
	 viewBox="0 0 144 144" style="enable-background:new 0 0 144 144;" xml:space="preserve">
<style type="text/css">
	.st0{fill:#FFFFFF;}
</style>
<g id="Layer_2">
	<rect x="-0.8" width="146.1" height="146.1"/>
</g>
<g id="Layer_1">
	<g id="Layer_3">
		<path class="st0" d="M38.2,85.7c0.6-2.3,1.7-4.5,3.2-6.3c1.7-2.4,4-4.2,6.6-5.6c2.2-1.1,4.5-1.6,7-1.6c2.7,0,5.1,0.2,7.6,1.2
			c2.7,1.2,5,3.1,6.6,5.5c1.7,2.4,3.3,5.2,3.3,8.2V107H37.9c0,0,0-8.8,0-9.4c0-2.7-0.1-5.4-0.1-8.1C37.7,88.2,37.9,86.9,38.2,85.7z"
			/>
		<path class="st0" d="M106.4,60.4c-0.6,2.3-1.7,4.5-3.2,6.3c-1.7,2.4-4,4.2-6.6,5.6c-2.2,1.1-4.5,1.6-7,1.6c-2.7,0-5.1-0.2-7.6-1.2
			c-2.7-1.2-5-3.1-6.6-5.5c-1.7-2.4-3.3-5.2-3.3-8.2V39.1h34.7c0,0,0,8.8,0,9.4c0,2.7,0.1,5.4,0.1,8.1
			C106.8,57.9,106.6,59.2,106.4,60.4z"/>
		<path class="st0" d="M57.4,38c1.9,0.2,3.7,1.1,5.4,1.9c4.6,2.4,8.1,6.4,9.1,11.6c0.2,1,0.3,1.9,0.3,2.9v18.3H37.5V38h18.7
			C56.6,38,57,38,57.4,38z"/>
		<path class="st0" d="M87.1,108c-1.9-0.2-3.7-1-5.4-1.9c-4.6-2.4-8.1-6.4-9.1-11.6c-0.2-1-0.3-1.9-0.3-2.9l-0.1-18.3l34.7-0.2
			l0.2,34.8L95.5,108l-7.2,0C87.9,108.1,87.5,108.1,87.1,108z"/>
	</g>
</g>
</svg>
