<?xml version="1.0" encoding="utf-8"?>
<!-- Generator: Adobe Illustrator 26.0.1, SVG Export Plug-In . SVG Version: 6.00 Build 0)  -->
<svg version="1.1" id="Layer_1" xmlns="http://www.w3.org/2000/svg" xmlns:xlink="http://www.w3.org/1999/xlink" x="0px" y="0px"
	 viewBox="0 0 409 409" style="enable-background:new 0 0 409 409;" xml:space="preserve">
<style type="text/css">
	.st0{fill:#FFFFFF;}
</style>
<g id="Layer_4">
	<circle cx="204.5" cy="204.5" r="204.5"/>
</g>
<g id="Layer_3">
	<path class="st0" d="M109.1,240c1.7-6.4,4.8-12.5,9-17.6c4.9-6.6,11.2-11.9,18.5-15.6c6.1-3,12.7-4.5,19.5-4.5
		c7.5,0,14.3,0.5,21.3,3.5c7.5,3.4,13.9,8.8,18.6,15.5c4.8,6.6,9.3,14.7,9.3,23v55.4h-97.1c0,0,0-24.7,0-26.3
		c0-7.6-0.4-15.2-0.3-22.8C107.8,247,108.3,243.4,109.1,240z"/>
	<path class="st0" d="M299.9,169.2c-1.7,6.4-4.8,12.5-9,17.6c-4.9,6.6-11.2,11.9-18.5,15.7c-6.1,3-12.7,4.5-19.5,4.5
		c-7.5,0-14.3-0.5-21.3-3.5c-7.5-3.4-13.9-8.8-18.6-15.5c-4.8-6.6-9.3-14.7-9.3-23v-55.5h97.1c0,0,0,24.7,0,26.3
		c0,7.6,0.4,15.2,0.3,22.8C301.2,162.2,300.7,165.7,299.9,169.2z"/>
	<path class="st0" d="M162.9,106.5c5.2,0.6,10.5,3,15.1,5.4c12.9,6.7,22.6,18,25.4,32.5c0.5,2.7,0.8,5.4,0.9,8.1v51.3h-97.1v-97.4
		h52.5C160.7,106.3,161.8,106.4,162.9,106.5z"/>
	<path class="st0" d="M246.1,302.5c-5.2-0.5-10.5-2.9-15.1-5.3c-12.9-6.6-22.7-17.9-25.5-32.4c-0.5-2.7-0.8-5.4-0.9-8.1l-0.3-51.3
		l97.1-0.6l0.6,97.5l-32.4,0.2l-20.1,0.1C248.3,302.6,247.2,302.6,246.1,302.5z"/>
</g>
</svg>
