<svg xmlns="http://www.w3.org/2000/svg" viewBox="0 0 144 144"><defs><style>.cls-1{fill:#fff;}</style></defs><g id="Layer_2" data-name="Layer 2"><rect width="144" height="144"/></g><g id="Layer_1" data-name="Layer 1"><g id="Layer_3" data-name="Layer 3"><path class="cls-1" d="M38.21,85.71a16.76,16.76,0,0,1,3.22-6.28A18.76,18.76,0,0,1,48,73.86a15.73,15.73,0,0,1,7-1.61,18.47,18.47,0,0,1,7.61,1.25A16.39,16.39,0,0,1,69.25,79c1.71,2.35,3.32,5.25,3.32,8.21V107H37.89v-9.4c0-2.71-.14-5.43-.11-8.14A15.41,15.41,0,0,1,38.21,85.71Z"/><path class="cls-1" d="M106.36,60.43a16.76,16.76,0,0,1-3.22,6.28,19.24,19.24,0,0,1-6.61,5.61,15.66,15.66,0,0,1-7,1.61A18.47,18.47,0,0,1,82,72.68a16.41,16.41,0,0,1-6.64-5.54C73.61,64.79,72,61.89,72,58.93V39.11h34.68V48.5c0,2.71.14,5.43.1,8.14A15.09,15.09,0,0,1,106.36,60.43Z"/><path class="cls-1" d="M57.43,38A16.33,16.33,0,0,1,62.82,40a16.73,16.73,0,0,1,9.07,11.61,19.07,19.07,0,0,1,.32,2.89V72.79H37.53V38H56.28A5.63,5.63,0,0,1,57.43,38Z"/><path class="cls-1" d="M87.14,108a15.37,15.37,0,0,1-5.39-1.9,16.62,16.62,0,0,1-9.11-11.57,20.28,20.28,0,0,1-.32-2.89l-.11-18.32,34.68-.22.22,34.82L95.53,108l-7.17,0C87.93,108.07,87.53,108.07,87.14,108Z"/></g></g></svg>