<svg id="Layer_1" data-name="Layer 1" xmlns="http://www.w3.org/2000/svg" viewBox="0 0 384 384"><defs><style>.cls-1{fill:#fff;}</style></defs><g id="Layer_4" data-name="Layer 4"><circle cx="192" cy="192" r="192"/></g><g id="Layer_3" data-name="Layer 3"><path class="cls-1" d="M101.59,225.35A43.63,43.63,0,0,1,110,208.83a49.23,49.23,0,0,1,17.37-14.65,41.15,41.15,0,0,1,18.3-4.23c7,0,13.43.47,20,3.29a43.12,43.12,0,0,1,17.46,14.55c4.51,6.2,8.74,13.8,8.74,21.6v52H100.74V256.71c0-7.14-.37-14.27-.28-21.41A39.2,39.2,0,0,1,101.59,225.35Z" transform="translate(0 0)"/><path class="cls-1" d="M280.72,158.88a43.7,43.7,0,0,1-8.45,16.52,50.54,50.54,0,0,1-17.37,14.74,41.15,41.15,0,0,1-18.3,4.23c-7,0-13.43-.47-20-3.29a43.12,43.12,0,0,1-17.46-14.55c-4.51-6.2-8.74-13.8-8.74-21.6v-52.1h91.17v24.69c0,7.13.37,14.27.28,21.41A39.73,39.73,0,0,1,280.72,158.88Z" transform="translate(0 0)"/><path class="cls-1" d="M152.1,100c4.88.56,9.86,2.82,14.17,5.07,12.12,6.29,21.22,16.9,23.85,30.51a53.22,53.22,0,0,1,.85,7.61v48.16H99.8V99.92h49.29A16.17,16.17,0,0,1,152.1,100Z" transform="translate(0 0)"/><path class="cls-1" d="M230.21,284c-4.88-.47-9.86-2.72-14.17-5-12.12-6.19-21.32-16.8-23.95-30.42a51.67,51.67,0,0,1-.84-7.6L191,192.86l91.16-.56.57,91.54-30.42.19-18.88.09C232.28,284.12,231.24,284.12,230.21,284Z" transform="translate(0 0)"/></g></svg>