<svg id="Layer_1" data-name="Layer 1" xmlns="http://www.w3.org/2000/svg" viewBox="0 0 144 144"><defs><style>.cls-1{fill:#fff;}</style></defs><g id="Layer_4" data-name="Layer 4"><circle cx="72" cy="72" r="72"/></g><g id="Layer_3" data-name="Layer 3"><path class="cls-1" d="M38.09,84.51a16.46,16.46,0,0,1,3.17-6.2,18.58,18.58,0,0,1,6.52-5.49,15.38,15.38,0,0,1,6.86-1.59,18.27,18.27,0,0,1,7.5,1.23,16.18,16.18,0,0,1,6.55,5.46C70.38,80.25,72,83.1,72,86v19.51H37.78V96.27c0-2.68-.14-5.36-.11-8A14.87,14.87,0,0,1,38.09,84.51Z" transform="translate(0 0)"/><path class="cls-1" d="M105.27,59.58a16.54,16.54,0,0,1-3.17,6.2,18.86,18.86,0,0,1-6.51,5.52,15.42,15.42,0,0,1-6.87,1.59,18.3,18.3,0,0,1-7.5-1.23,16.15,16.15,0,0,1-6.54-5.46C73,63.87,71.4,61,71.4,58.1V38.56h34.19v9.26c0,2.68.14,5.35.1,8A14.68,14.68,0,0,1,105.27,59.58Z" transform="translate(0 0)"/><path class="cls-1" d="M57,37.5a16.09,16.09,0,0,1,5.31,1.9A16.52,16.52,0,0,1,71.3,50.85a19.71,19.71,0,0,1,.31,2.85V71.76H37.43V37.47H55.91A6.19,6.19,0,0,1,57,37.5Z" transform="translate(0 0)"/><path class="cls-1" d="M86.33,106.51A15.24,15.24,0,0,1,81,104.64a16.38,16.38,0,0,1-9-11.4,18.42,18.42,0,0,1-.32-2.85l-.11-18.07,34.19-.21.21,34.33-11.41.07-7.07,0A11.63,11.63,0,0,1,86.33,106.51Z" transform="translate(0 0)"/></g></svg>